<svg width="272" height="527" viewBox="0 0 272 527" fill="none" xmlns="http://www.w3.org/2000/svg">
<path d="M197.807 54.9694C197.807 54.9694 196.33 38.5774 195.81 38.4638C195.745 30.1005 180.079 19.041 176.6 16.6318C157.743 3.58762 145.867 4.38869 126.472 23.5724C111.165 38.709 116.329 65.4789 116.873 67.3261C112.85 69.4842 116.604 75.1335 120.907 74.2846C120.907 74.2846 119.652 77.8834 123.585 79.3839C127.518 80.8844 128.779 79.5692 128.779 79.5692C128.779 79.5692 126.089 83.5148 131.72 84.7463C131.72 84.7463 129.233 86.193 133.076 87.5261C136.92 88.8592 140.153 83.1681 140.153 83.1681C140.153 83.1681 139.687 87.55 143.375 88.5543C147.062 89.5586 151.324 85.1946 151.324 85.1946C151.324 85.1946 155.167 90.0489 158.64 89.5108C162.112 88.9668 164.288 85.105 164.288 85.105C164.288 85.105 163.876 87.8728 167.318 87.3886C170.438 86.9522 170.145 82.2355 170.062 81.3507C170.163 82.2474 170.797 87.0538 172.781 86.5337C176.666 85.5174 175.746 82.361 176.445 83.3175C177.144 84.268 180.611 83.3893 183.516 81.3866C186.164 79.5633 184.849 76.4248 184.849 76.4248C184.849 76.4248 187.461 77.2497 189.212 74.2727C189.212 74.2727 189.391 78.6546 192.726 76.6579C195.649 74.9063 192.332 69.8309 192.332 69.8309C192.332 69.8309 194.764 71.5048 197.669 69.6755C200 68.2109 196.557 65.724 196.557 65.724C196.557 65.724 200.873 66.6924 202.152 64.7316C203.431 62.7708 197.807 54.9634 197.807 54.9634V54.9694Z" fill="url(#paint0_linear_1_397)"/>
<path d="M193.175 51.7113C193.175 52.339 193.151 52.907 193.109 53.4151V53.439C192.816 57.0856 191.668 58.1139 191.405 59.7758C191.178 61.2165 189.863 64.2414 187.688 61.6469L187.682 61.641C187.682 61.641 186.684 49.8761 187.012 47.6582C187.012 47.6582 187.467 44.3344 189.11 43.5871C191.22 42.6246 193.192 46.1637 193.181 51.7054L193.175 51.7113Z" fill="url(#paint1_linear_1_397)"/>
<path style="mix-blend-mode:multiply" opacity="0.6" d="M187.144 54.3357C187.144 54.3357 189.577 47.3055 191.16 46.618C192.744 45.9365 192.78 51.5738 192.732 53.4569C192.691 55.346 192.362 56.5057 192.362 56.5057C192.362 56.5057 192.439 54.2759 192.248 52.5064C191.973 49.9717 191.017 47.9033 190.354 48.2201C189.69 48.5369 189.26 51.8488 189.254 52.2135C189.254 52.5841 189.869 53.1461 190.144 55.1069C190.419 57.0677 190.031 59.3035 189.636 59.3394C189.242 59.3752 189.164 57.7671 188.877 55.9378C188.59 54.1085 187.544 54.6406 187.246 55.902L187.144 54.3297V54.3357Z" fill="url(#paint2_linear_1_397)"/>
<path style="mix-blend-mode:multiply" opacity="0.6" d="M187.246 55.902C187.246 55.902 187.861 54.0248 188.513 54.7303C189.17 55.4357 189.128 57.6894 189.577 57.8867C190.025 58.084 190.294 56.2308 189.935 54.6286C189.577 53.0265 188.853 51.6515 188.19 52.0341L187.144 54.3357L187.246 55.9079V55.902Z" fill="url(#paint3_linear_1_397)"/>
<path style="mix-blend-mode:multiply" d="M193.103 53.439C192.81 57.0856 191.668 58.1138 191.399 59.7757C191.172 61.2165 189.857 64.2414 187.682 61.6469C187.801 61.7425 188.967 62.6333 189.905 61.9996C190.897 61.3241 191.035 59.979 191.328 58.9029C191.621 57.8329 192.672 56.9601 193.103 53.433V53.439Z" fill="url(#paint4_linear_1_397)"/>
<path d="M133.136 86.199C129.688 86.9582 125.528 86.5338 123.83 83.6464C123.8 83.6523 119.276 84.7105 116.216 77.3753C113.562 71.0087 115.194 67.7984 115.194 67.7984C115.194 67.7984 112.618 65.6583 112.223 63.9904C111.332 60.2301 112.462 53.8694 115.14 53.7618C117.823 53.6542 119.766 55.6569 119.766 55.6569C119.766 55.6569 121.541 51.3228 123.693 51.7114C125.844 52.0999 131.272 59.4769 131.272 59.4769C131.272 59.4769 134.332 56.8705 135.593 58.4546C136.854 60.0388 138.45 64.0501 138.45 64.0501C138.45 64.0501 142 65.9093 141.444 70.1777C141.444 70.1777 142.879 73.0831 140.082 75.4862C139.478 76.0063 138.671 76.5025 137.619 76.9389C137.619 76.9389 139.275 79.7785 138.36 82.9768C137.966 84.3577 135.76 85.6191 133.142 86.199H133.136Z" fill="#941010"/>
<path d="M138.39 315.973L39.119 263.36L40.2726 283.267L124.822 342.528C129.377 333.686 133.913 324.845 138.39 315.973Z" fill="url(#paint5_linear_1_397)"/>
<path opacity="0.2" d="M138.39 315.973L69.0993 279.25C65.9554 285.007 62.9251 291.038 59.4585 296.718L124.822 342.534C129.377 333.692 133.913 324.851 138.39 315.979V315.973Z" fill="#201829"/>
<path d="M41.4441 284.576L46.5842 266.11L35.4373 257.489L2.27124 311.209C2.27124 311.209 9.90378 311.221 41.4441 284.57V284.576Z" fill="#4296D2"/>
<path d="M2.27124 311.209L35.4373 257.489L31.7256 254.614L0 309.158L2.27124 311.209Z" fill="#2B2238"/>
<path d="M37.5233 288.283C36.806 285.551 35.2939 283.141 34.0865 280.613C33.9789 280.385 33.6383 280.583 33.7458 280.81C34.9412 283.309 36.4355 285.688 37.1467 288.384C37.2125 288.629 37.595 288.528 37.5292 288.277L37.5233 288.283Z" fill="#2B2238"/>
<path d="M34.5527 291.146C33.8354 288.414 32.3233 286.005 31.1159 283.476C31.0084 283.249 30.6677 283.446 30.7753 283.673C31.9706 286.172 33.4649 288.552 34.1761 291.248C34.2419 291.493 34.6244 291.391 34.5587 291.14L34.5527 291.146Z" fill="#2B2238"/>
<path d="M31.1159 294.189C30.3987 291.457 28.8865 289.048 27.6792 286.519C27.5716 286.292 27.2309 286.489 27.3385 286.716C28.5339 289.215 30.0281 291.594 30.7394 294.291C30.8051 294.536 31.1876 294.434 31.1219 294.183L31.1159 294.189Z" fill="#2B2238"/>
<path d="M195.643 92.8167L241.689 100.337L240.357 50.2467C245.545 48.5788 250.129 51.0537 255.161 48.9315C257.821 60.0807 267.42 109.615 264.001 120.358C258.634 137.216 198.649 118.905 198.649 118.905L195.637 92.8227L195.643 92.8167Z" fill="url(#paint6_linear_1_397)"/>
<path d="M255.335 48.3995C255.335 48.3995 257.528 32.0374 255.574 32.3483C253.619 32.6532 252.567 40.3291 252.567 40.3291C252.567 40.3291 253.344 27.6973 251.838 27.6794C250.332 27.6674 247.248 39.9106 247.248 39.9106C247.248 39.9106 247.433 25.1148 246.214 25.3061C244.995 25.4974 242.49 39.9046 242.49 39.9046C242.49 39.9046 240.811 29.156 238.856 29.4609C236.902 29.7658 239.179 45.9246 239.179 45.9246C239.179 45.9246 233.925 42.7442 232.694 44.436C231.457 46.1338 240.213 52.5184 240.213 52.5184L241.683 105.09L254.39 61.5573L255.335 48.3935V48.3995Z" fill="url(#paint7_linear_1_397)"/>
<path d="M233.25 262.511L198.195 491.526L219.395 491.819L261.467 325.413L233.25 262.511Z" fill="url(#paint8_linear_1_397)"/>
<path opacity="0.2" d="M232.419 464.63L196.187 270.223L239.484 252.605L252.083 461.307C245.485 462.12 238.874 463.507 232.413 464.625L232.419 464.63Z" fill="#201829"/>
<path d="M214.47 143.631L219.079 202.377L145.67 204.105L160.905 164.297L214.47 143.631Z" fill="#F78E1E"/>
<path d="M167.306 72.7184L174.527 95.5726L192.744 93.2292L175.345 123.048L138.832 107.607L152.98 101.114L146.07 69.6456L167.306 72.7184Z" fill="url(#paint9_linear_1_397)"/>
<path d="M150.374 17.4688C150.374 17.4688 177.001 14.2765 186.289 44.5317C195.583 74.7808 174.162 85.9778 159.112 85.7566C144.062 85.5354 131.875 71.182 128.468 62.2747C125.055 53.3673 126.406 21.5459 150.374 17.4748V17.4688Z" fill="url(#paint10_linear_1_397)"/>
<path d="M215.965 167.071C215.965 167.071 195.488 179.481 156.022 178.883C156.022 178.883 126.323 215.972 127.375 257.041C128.11 285.867 140.847 354.771 140.847 354.771C140.847 354.771 177.36 384.56 186.492 358.298C195.625 332.036 204.375 227.958 204.375 227.958L184.042 252.653L208.26 378.827L189.786 453.427L248.563 451.329C248.563 451.329 267.582 411.395 270.313 371.193C274.551 308.799 246.244 224.12 215.965 167.071Z" fill="#F78E1E"/>
<path d="M162.375 355.686C167.814 341.559 173.935 325.992 176.989 310.312C128.11 291.834 80.0073 273.822 80.0073 273.822L62.2916 323.655L163.135 367.743C165.531 362.543 160.313 361.036 162.375 355.686Z" fill="#F78E1E"/>
<path d="M67.9697 332.497L97.7707 278.473L76.5107 270.002L53.8582 326.244L67.9697 332.497Z" fill="#F78E1E"/>
<path d="M115.582 122.851L43.8947 216.199C43.8947 216.199 33.7638 209.838 31.4387 212.122C25.408 218.034 20.6265 238.192 31.373 218.177C31.373 218.177 21.1345 249.975 35.9274 219.331C35.9274 219.331 29.7592 248.516 40.5894 223.145C40.5894 223.145 37.4217 247.787 43.805 225.71C43.805 225.71 47.445 230.719 52.095 226.535C56.7511 222.35 134.672 147.51 137.529 138.047C140.386 128.584 115.576 122.851 115.576 122.851H115.582Z" fill="url(#paint11_linear_1_397)"/>
<path opacity="0.2" d="M198.183 237.792C213.652 226.051 224.948 212.988 233.047 201.206C252.418 248.349 265.866 301.249 271.951 349.582C273.248 401.089 248.563 451.329 248.563 451.329L189.786 453.427L208.757 378.731L194.717 306.845L194.34 304.423C195.051 253.113 198.183 237.803 198.183 237.803V237.792Z" fill="#201829"/>
<path d="M252.418 447.964L187.61 450.558L186.367 463.776L246.058 473.275L252.418 447.964Z" fill="#CC7620"/>
<path opacity="0.2" d="M157.887 172.182L160.905 164.291L214.47 143.631L216.335 167.376C200.472 171.202 177.676 175.069 157.887 172.182Z" fill="#201829"/>
<path d="M217.656 489.918L198.614 487.742L191.848 500.105L250.099 524.441C250.099 524.441 248.915 516.903 217.65 489.924L217.656 489.918Z" fill="#4296D2"/>
<path d="M250.105 524.435L191.854 500.099L189.6 504.217L248.431 527L250.105 524.435Z" fill="#2B2238"/>
<path d="M221.912 493.218C219.342 494.348 217.214 496.213 214.919 497.791C214.709 497.934 214.907 498.275 215.116 498.132C217.411 496.553 219.539 494.688 222.109 493.558C222.342 493.457 222.139 493.116 221.912 493.218Z" fill="#2B2238"/>
<path d="M225.211 495.705C222.641 496.834 220.513 498.7 218.218 500.278C218.009 500.421 218.206 500.762 218.415 500.619C220.71 499.04 222.838 497.175 225.408 496.045C225.641 495.944 225.438 495.603 225.211 495.705Z" fill="#2B2238"/>
<path d="M228.755 498.616C226.185 499.746 224.057 501.611 221.762 503.189C221.553 503.333 221.75 503.673 221.96 503.53C224.255 501.952 226.382 500.087 228.953 498.957C229.186 498.855 228.982 498.514 228.755 498.616Z" fill="#2B2238"/>
<path d="M198.721 93.1814L222.79 95.8416L220.776 130.479L198.721 93.1814Z" fill="#161C40"/>
<path d="M181.269 94.6521C181.269 94.6521 190.144 91.2445 197.771 92.7391C205.397 94.2336 220.143 115.456 224.308 124.889C228.474 134.323 231.493 149.31 231.493 149.31C231.493 149.31 176.081 177.479 152.023 169.815L136.25 142.028L124.769 154.582L99.522 135.004C99.522 135.004 113.4 111.989 129.592 108.115L144.373 103.787C144.373 103.787 181.609 114.093 181.257 94.6521H181.269Z" fill="#161C40"/>
<path d="M122.617 63.255C122.904 64.0142 123.197 64.6958 123.489 65.2936L123.507 65.3234C125.611 69.6157 127.9 70.3451 129.072 72.2521C130.088 73.896 133.543 76.9748 135.844 72.8499C135.85 72.8439 135.856 72.8379 135.856 72.8379C135.856 72.8379 132.15 58.1019 130.626 55.5612C130.626 55.5612 128.402 51.7352 125.45 51.5619C121.655 51.3407 120.101 56.5297 122.617 63.255Z" fill="url(#paint12_linear_1_397)"/>
<path style="mix-blend-mode:multiply" opacity="0.6" d="M133.411 63.7213C133.411 63.7213 126.364 56.2786 123.531 56.165C120.698 56.0514 123.179 62.9083 124.099 65.1799C125.02 67.4516 126.066 68.713 126.066 68.713C126.066 68.713 124.936 66.0408 124.452 63.811C123.752 60.6067 124.344 57.6655 125.54 57.7492C126.735 57.8329 128.923 61.6588 129.09 62.1072C129.263 62.5556 128.528 63.518 128.97 66.0229C129.413 68.5277 131.038 71.0684 131.69 70.9309C132.335 70.7934 131.738 68.8086 131.373 66.4593C131.008 64.1099 132.909 64.2832 133.961 65.6761L133.411 63.7213Z" fill="url(#paint13_linear_1_397)"/>
<path style="mix-blend-mode:multiply" opacity="0.6" d="M133.961 65.6762C133.961 65.6762 132.138 63.6735 131.409 64.8273C130.68 65.9811 131.762 68.6951 131.134 69.1375C130.506 69.5799 129.245 67.4457 129.096 65.3414C128.946 63.2311 129.478 61.2404 130.71 61.4018L133.417 63.7213L133.967 65.6762H133.961Z" fill="url(#paint14_linear_1_397)"/>
<path style="mix-blend-mode:multiply" d="M123.507 65.3234C125.611 69.6157 127.9 70.345 129.072 72.252C130.088 73.896 133.543 76.9747 135.844 72.8499C135.694 73.0172 134.242 74.6313 132.461 74.2786C130.578 73.908 129.753 72.3357 128.797 71.164C127.847 69.9923 125.779 69.4124 123.507 65.3234Z" fill="url(#paint15_linear_1_397)"/>
<path d="M115.833 49.2305C117.082 51.8907 118.361 48.2082 118.361 48.2082C119.873 52.351 123.029 52.1777 123.029 52.1777C123.029 52.1777 120.327 54.1205 121.033 57.0319C121.732 59.9432 127.063 58.4786 127.063 58.4786C127.063 58.4786 126.878 64.0263 129.58 64.1637C132.287 64.3012 131.516 62.0535 131.516 62.0535C134.887 62.6274 132.724 59.5726 132.724 59.5726C133.584 58.3052 130.1 55.5971 130.1 55.5971C131.678 55.0232 130.662 51.8728 130.662 51.8728C131.522 53.2298 133.985 51.7054 133.985 51.7054C133.985 51.7054 135.204 53.6064 137.021 52.9429C138.844 52.2733 136.417 45.3626 136.417 45.3626C138.061 44.3464 134.6 37.2145 134.6 37.2145C134.6 37.2145 136.125 37.8601 136.8 37.0053C137.463 36.1683 135.921 33.5559 135.862 33.4543C135.909 33.5141 136.716 34.4287 139.454 33.6635C142.227 32.8864 141.414 28.3848 141.372 28.337C144.068 28.887 146.345 26.5077 146.345 26.5077C146.345 26.5077 147.696 28.7674 148.796 28.4327C149.895 28.0979 152.71 23.5426 152.71 23.5426C155.107 23.9909 157.265 22.7475 157.265 22.7475C157.038 22.9448 159.961 27.1832 161.778 26.2865C163.523 25.4257 163.756 24.5768 163.774 24.517C163.786 24.6007 164.025 26.436 166.051 29.5506C168.125 32.7429 170.474 30.8179 170.474 30.8179C170.474 30.8179 170.486 34.6738 171.227 36.0966C171.968 37.5194 173.14 38.6014 173.14 38.6014C173.14 38.6014 174.066 41.9671 175.345 41.2377C176.624 40.5144 176.361 39.2769 176.379 38.8943C176.397 38.5117 177.222 39.9226 179.302 40.3351C181.382 40.7475 180.545 38.2666 180.545 38.2666C181.585 39.5101 183.235 38.7987 183.235 38.7987C183.235 38.7987 183.522 42.8997 184.747 44.1072C187.538 46.8631 188.488 41.178 188.488 41.178C190.437 40.2872 189.098 37.7645 189.098 37.7645C189.098 37.7645 189.708 38.3145 190.802 37.077C191.889 35.8336 191.298 31.3739 189.785 29.7479C188.381 28.2414 188.243 29.7837 188.231 30.0169C188.231 30.0348 188.231 30.0468 188.231 30.0468C188.231 30.0468 191.387 27.5419 191.082 25.9398C190.778 24.3437 188.817 21.6774 188.817 21.6774C188.817 21.6774 190.425 19.8063 190.359 17.959C190.293 16.1178 189.17 11.9032 187.454 12.1125C185.793 12.3217 185.679 13.6728 185.685 13.8102C185.685 13.8102 184.747 10.9587 183.892 10.1277C183.336 9.58971 181.43 8.84245 180.73 8.87234C179.039 8.95006 177.999 10.0022 177.999 10.0022C176.272 9.13538 174.484 7.18652 174.484 7.18652C174.484 7.18652 175.668 6.17024 174.616 4.81321C172.327 1.84808 165.645 0.598655 162.315 0.108451C157.791 -0.561096 155.633 2.0872 155.675 2.11709C151.198 1.84808 147.947 3.01978 147.947 3.01978C147.947 3.01978 147.935 2.42795 146.124 2.21274C144.391 2.00949 143.321 2.84044 142.251 4.46051L142.233 4.4904C142.233 4.4904 140.864 3.51597 139.011 4.86104C136.806 6.45719 135.425 11.0005 136.537 16.8292C135.82 17.0444 135.431 17.2058 134.57 17.6781C125.372 14.2945 125.707 21.253 125.707 21.253C125.707 21.253 124.236 21.0258 121.732 21.9345C119.299 22.8133 119.371 23.2855 119.58 24.1583C119.796 25.055 121.63 25.0371 121.63 25.0371C116.436 27.9066 117.267 27.6854 117.267 27.6854C115.408 29.2696 115.486 30.7043 115.642 31.3261C115.695 31.5353 115.755 31.6549 115.755 31.6549C115.755 31.6549 112.641 33.9863 112.982 35.702C113.322 37.4177 115.45 36.5151 115.45 36.5151C115.211 37.9677 115.695 39.5878 116.138 40.6758C116.448 41.435 116.735 41.9372 116.735 41.9372C116.735 41.9372 114.584 46.5762 115.833 49.2364V49.2305Z" fill="#912525"/>
<g style="mix-blend-mode:multiply">
<path d="M115.833 49.2304C117.082 51.8907 118.361 48.2082 118.361 48.2082C119.873 52.351 123.029 52.1776 123.029 52.1776C123.029 52.1776 120.328 54.1205 121.033 57.0319C121.732 59.9432 127.064 58.4786 127.064 58.4786C127.064 58.4786 126.878 64.0262 129.58 64.1637C132.287 64.3012 131.516 62.0535 131.516 62.0535C134.887 62.6274 132.724 59.5726 132.724 59.5726C133.584 58.3052 130.1 55.5971 130.1 55.5971C131.678 55.0232 130.662 51.8728 130.662 51.8728C131.522 53.2298 133.985 51.7054 133.985 51.7054C133.985 51.7054 135.204 53.6064 137.021 52.9428C138.844 52.2733 136.418 45.3626 136.418 45.3626C138.061 44.3463 134.601 37.2145 134.601 37.2145C134.601 37.2145 136.125 37.8601 136.8 37.0052C137.475 36.1504 135.862 33.4483 135.862 33.4483C135.862 33.4483 136.633 34.4526 139.454 33.6635C142.227 32.8863 141.414 28.3848 141.372 28.337C144.068 28.887 146.345 26.5077 146.345 26.5077C146.345 26.5077 147.696 28.7674 148.796 28.4326C149.896 28.0979 152.711 23.5426 152.711 23.5426C155.107 23.9909 157.265 22.7475 157.265 22.7475C157.038 22.9447 159.961 27.1832 161.778 26.2865C163.523 25.4257 163.756 24.5768 163.774 24.517C163.786 24.6007 164.025 26.436 166.051 29.5505C168.125 32.7428 170.474 30.8179 170.474 30.8179C170.474 30.8179 170.486 34.6738 171.227 36.0966C171.968 37.5193 173.14 38.6014 173.14 38.6014C173.14 38.6014 174.066 41.9671 175.345 41.2377C176.624 40.5144 176.361 39.2769 176.379 38.8943C176.397 38.5117 177.222 39.9225 179.302 40.335C181.382 40.7475 180.545 38.2666 180.545 38.2666C181.585 39.5101 183.235 38.7987 183.235 38.7987C183.235 38.7987 183.522 42.8996 184.747 44.1072C187.538 46.8631 188.489 41.1779 188.489 41.1779C190.437 40.2872 189.098 37.7644 189.098 37.7644C189.098 37.7644 189.708 38.3144 190.802 37.077C191.889 35.8335 191.298 31.3739 189.786 29.7478C188.273 28.1218 188.232 30.0467 188.232 30.0467C188.232 30.0467 191.387 27.5419 191.083 25.9398C190.778 24.3436 188.817 21.6774 188.817 21.6774C188.817 21.6774 190.425 19.8062 190.359 17.959C190.294 16.1178 189.17 11.9032 187.455 12.1124C185.793 12.3217 185.679 13.6727 185.685 13.8102C185.339 16.046 173.648 16.3389 173.648 16.3389C173.648 16.3389 175.925 18.4074 171.998 18.9036C167.073 19.5253 162.734 15.4781 162.734 15.4781C162.734 15.4781 158.102 18.0846 154.498 17.971C143.925 17.6302 137.505 15.5678 136.155 13.3439L136.537 16.8292L134.571 17.678C134.571 17.678 137.398 18.5389 137.804 22.0421C137.983 23.5724 132.455 25.4854 131.642 23.9909C131.642 23.9909 132.198 27.3267 128.582 27.4582C128.582 27.4582 131.451 28.2174 130.692 31.4815C129.939 34.7455 116.921 35.8216 115.749 31.6608C115.749 31.6608 112.635 33.9923 112.976 35.708C113.317 37.4237 115.444 36.521 115.444 36.521C115.038 38.984 116.73 41.9431 116.73 41.9431C116.73 41.9431 114.578 46.5821 115.827 49.2424L115.833 49.2304Z" fill="#912525"/>
</g>
<g style="mix-blend-mode:multiply">
<path d="M115.833 49.2305C117.082 51.8907 118.361 48.2082 118.361 48.2082C119.873 52.351 123.029 52.1777 123.029 52.1777C123.029 52.1777 120.328 54.1206 121.033 57.0319C121.732 59.9432 127.064 58.4786 127.064 58.4786C127.064 58.4786 126.878 64.0263 129.58 64.1638C132.288 64.3013 131.517 62.0535 131.517 62.0535C134.888 62.6274 132.724 59.5726 132.724 59.5726C133.585 58.3052 130.1 55.5971 130.1 55.5971C131.678 55.0232 130.662 51.8728 130.662 51.8728C131.523 53.2298 133.985 51.7054 133.985 51.7054C133.985 51.7054 135.204 53.6064 137.021 52.9429C138.844 52.2733 136.418 45.3626 136.418 45.3626C138.061 44.3464 134.601 37.2145 134.601 37.2145C134.601 37.2145 136.125 37.8601 136.8 37.0053C137.464 36.1683 135.922 33.5559 135.862 33.4543C135.91 33.5141 136.716 34.4287 139.454 33.6635C142.227 32.8864 141.414 28.3848 141.373 28.337C144.068 28.887 146.345 26.5077 146.345 26.5077C146.345 26.5077 147.696 28.7674 148.796 28.4327C149.896 28.0979 152.711 23.5426 152.711 23.5426C155.108 23.9909 157.265 22.7475 157.265 22.7475C157.038 22.9448 159.961 27.1832 161.778 26.2865C163.523 25.4257 163.756 24.5768 163.774 24.517C163.786 24.6007 164.025 26.436 166.051 29.5506C168.125 32.7429 170.474 30.8179 170.474 30.8179C170.474 30.8179 170.486 34.6738 171.227 36.0966C171.968 37.5194 173.14 38.6014 173.14 38.6014C173.14 38.6014 174.066 41.9671 175.345 41.2378C176.624 40.5144 176.362 39.2769 176.379 38.8943C176.397 38.5117 177.222 39.9226 179.302 40.3351C181.382 40.7476 180.545 38.2666 180.545 38.2666C181.585 39.5101 183.235 38.7987 183.235 38.7987C183.235 38.7987 183.522 42.8997 184.747 44.1072C187.538 46.8631 188.489 41.178 188.489 41.178C190.437 40.2872 189.098 37.7645 189.098 37.7645C189.098 37.7645 189.708 38.3145 190.802 37.077C191.89 35.8336 191.298 31.3739 189.786 29.7479C188.381 28.2414 188.244 29.7837 188.232 30.0169C188.232 30.0348 188.232 30.0468 188.232 30.0468C188.752 33.0119 185.931 30.7402 185.931 30.7402C185.931 30.7402 185.954 32.5695 183.994 32.0255C184.108 32.0614 185.548 32.5635 184.03 33.269C182.452 34.0043 180.719 31.344 180.719 31.344C180.719 31.344 180.139 32.9521 178.184 33.0896C178.184 33.0896 180.276 33.9564 177.969 34.6499C175.662 35.3434 176.254 30.6804 176.254 30.6804C176.254 30.6804 174.969 32.0434 173.427 30.6266C171.879 29.2098 172.022 25.9757 172.022 25.9757C172.022 25.9757 171.454 28.2294 168.89 27.9006C166.326 27.5718 164.408 23.0763 164.408 23.0763C164.408 23.0763 163.499 24.1583 162.34 24.529C161.186 24.8936 160.068 21.1992 160.068 21.1992C160.068 21.1992 160.021 22.5801 157.259 21.5937C157.259 21.5937 157.606 22.5263 155.711 22.6459C153.816 22.7654 151.348 20.5416 151.348 20.5416C151.348 20.5416 151.653 24.1942 150.2 24.8936C148.748 25.5931 148.234 20.44 148.234 20.44C148.234 20.44 146.644 23.0464 144.899 22.335C143.154 21.6236 142.604 20.0334 142.604 20.0334C142.604 20.0334 143.506 22.5861 141.48 22.9268C139.538 23.2497 138.563 21.9225 138.48 21.8089C138.599 22.0122 140.829 25.9398 137.96 27.2251C138.306 27.0756 140.996 25.9697 140.482 27.7691C139.932 29.6941 136.8 28.3609 136.8 28.3609C136.8 28.3609 138.019 29.7479 136.693 30.8658C135.473 31.894 134.726 31.0869 134.607 30.9435C134.78 31.1886 136.406 33.5918 133.692 35.0265C133.83 34.9667 135.617 34.2434 135.204 35.4211C134.774 36.6466 132.491 37.0112 132.491 37.0112C132.491 37.0112 134.433 38.3742 133.573 39.4802C133.232 39.9166 132.67 39.9883 132.108 39.9106C133.782 40.6101 135.939 41.9551 134.917 44.0235C133.74 46.3969 131.493 45.0876 130.393 44.2388C131.116 44.9502 132.072 46.2354 131.038 47.3414C129.514 48.9734 126.884 45.3447 126.884 45.3447C126.884 45.3447 127.094 47.3653 124.709 47.174C124.709 47.174 127.381 48.9674 125.821 49.9598C124.255 50.9522 119.616 50.3424 120.698 47.993C120.698 47.993 118.792 46.7496 119.85 45.1893C119.85 45.1893 116.849 45.273 116.754 41.9372C116.754 41.9372 114.602 46.5762 115.851 49.2364L115.833 49.2305Z" fill="#912525"/>
</g>
<g style="mix-blend-mode:soft-light" opacity="0.5">
<path d="M154.773 12.6565C154.773 12.6565 153.117 13.7086 154.892 14.0374C156.668 14.3662 159.441 12.8597 159.441 12.8597C164.766 13.1108 166.296 11.8614 165.292 9.83479C165.292 9.83479 168.376 5.38111 163.23 5.62621C161.927 5.68599 162.656 6.75607 162.68 6.77401C159.979 6.6126 160.475 7.87996 160.475 7.87996C160.475 7.87996 156.877 6.18218 155.777 6.15826C144.558 5.89523 148.915 9.08155 148.915 9.08155C138.277 13.9955 154.785 12.6624 154.785 12.6624L154.773 12.6565Z" fill="#912525"/>
</g>
<path d="M171.825 55.8602C171.048 55.8123 172.805 49.3141 177.127 47.3115C182.35 44.8963 184.687 49.5772 184.885 50.5934C185.088 51.6097 175.555 56.0694 171.819 55.8542L171.825 55.8602Z" fill="url(#paint16_linear_1_397)"/>
<path d="M178.033 54.7333C180.026 54.4216 181.384 52.5241 181.067 50.4951C180.749 48.4662 178.877 47.0742 176.884 47.3859C174.891 47.6977 173.533 49.5952 173.85 51.6241C174.168 53.653 176.04 55.0451 178.033 54.7333Z" fill="url(#paint17_linear_1_397)"/>
<path d="M178 54.5207C179.875 54.2273 181.153 52.4399 180.854 50.5284C180.555 48.6169 178.793 47.3052 176.917 47.5986C175.042 47.8919 173.764 49.6793 174.063 51.5908C174.362 53.5023 176.125 54.8141 178 54.5207Z" fill="url(#paint18_linear_1_397)"/>
<path style="mix-blend-mode:multiply" d="M179.637 50.5515C179.912 51.777 179.165 52.9906 177.963 53.2656C176.762 53.5406 175.567 52.7694 175.286 51.5499C175.005 50.3303 175.758 49.1108 176.959 48.8358C178.161 48.5608 179.356 49.332 179.637 50.5515Z" fill="url(#paint19_linear_1_397)"/>
<path d="M171.747 54.6406C171.747 54.6406 172.16 45.9963 176.989 44.1311C181.824 42.266 184.442 49.5234 184.442 49.5234C184.442 49.5234 182.374 45.8648 177.7 47.1979C173.02 48.531 171.747 54.6406 171.747 54.6406Z" fill="url(#paint20_linear_1_397)"/>
<path d="M171.682 54.9993L172.716 55.8363C172.716 55.8363 171.723 56.1651 171.556 55.902C171.389 55.639 171.682 54.9993 171.682 54.9993Z" fill="#D86B7C"/>
<path d="M173.409 55.7764C173.409 55.7764 177.467 55.4835 180.701 54.0308C183.934 52.5722 184.753 50.9043 184.753 50.9043C184.753 50.9043 179.888 54.1863 173.409 55.7764Z" fill="#D86B7C"/>
<path d="M179.81 49.7804C179.637 50.0255 180.647 49.8402 181.328 49.3739C181.932 48.9554 182.159 48.4473 182.076 48.3815C181.992 48.3218 180.486 48.8179 179.81 49.7804Z" fill="white"/>
<path d="M179.284 50.1032C178.979 50.0673 178.681 50.2945 178.705 50.4499C178.728 50.6054 179.123 50.719 179.266 50.6173C179.416 50.5157 179.452 50.1211 179.284 50.1032Z" fill="white"/>
<g style="mix-blend-mode:multiply" opacity="0.6">
<path d="M171.681 54.9993C171.681 54.9993 173.791 50.1869 177.551 48.525C181.31 46.8631 183.719 48.6924 183.719 48.6924C183.719 48.6924 182.512 45.8946 177.449 47.4549C172.387 49.0092 171.681 54.9993 171.681 54.9993Z" fill="#CC78B1"/>
</g>
<path d="M171.681 54.9993C171.681 54.9993 172.829 49.0272 178.065 47.4131C182.739 45.9784 184.681 49.9957 184.681 49.9957C184.681 49.9957 184.341 46.1697 180.874 46.0441C177.581 45.9246 172.614 48.824 171.681 54.9993Z" fill="#401432"/>
<path d="M155.926 58.347C156.649 58.066 152.992 52.4167 148.27 51.8309C142.562 51.1255 141.767 56.3025 141.88 57.3307C142 58.359 152.436 59.698 155.926 58.347Z" fill="url(#paint21_linear_1_397)"/>
<path d="M149.666 59.1696C151.658 58.8575 153.016 56.9598 152.699 54.9309C152.381 52.902 150.508 51.5103 148.516 51.8224C146.523 52.1345 145.165 54.0322 145.483 56.0611C145.8 58.09 147.673 59.4817 149.666 59.1696Z" fill="url(#paint22_linear_1_397)"/>
<path d="M149.626 58.9604C151.502 58.667 152.779 56.8796 152.48 54.9681C152.182 53.0566 150.419 51.7449 148.544 52.0382C146.669 52.3316 145.391 54.119 145.69 56.0305C145.989 57.942 147.751 59.2538 149.626 58.9604Z" fill="url(#paint23_linear_1_397)"/>
<path style="mix-blend-mode:multiply" d="M146.865 55.6807C146.973 56.9301 148.061 57.8567 149.286 57.7491C150.511 57.6415 151.42 56.5475 151.306 55.2981C151.199 54.0487 150.111 53.1221 148.886 53.2297C147.66 53.3373 146.752 54.4313 146.865 55.6807Z" fill="url(#paint24_linear_1_397)"/>
<path d="M155.621 57.1634C155.621 57.1634 152.591 49.0571 147.421 48.7582C142.251 48.4593 141.97 56.165 141.97 56.165C141.97 56.165 142.819 52.0521 147.678 51.8907C152.537 51.7353 155.621 57.1574 155.621 57.1574V57.1634Z" fill="url(#paint25_linear_1_397)"/>
<path d="M155.795 57.4861L155.066 58.5981C155.066 58.5981 156.112 58.61 156.189 58.3051C156.273 58.0062 155.795 57.4861 155.795 57.4861Z" fill="#D86B7C"/>
<path d="M154.39 58.7535C154.39 58.7535 150.434 59.716 146.913 59.3154C143.393 58.9149 142.096 57.5818 142.096 57.5818C142.096 57.5818 147.732 59.2258 154.384 58.7535H154.39Z" fill="#D86B7C"/>
<path d="M146.465 54.9993C146.704 55.1786 145.688 55.3161 144.899 55.077C144.194 54.8618 143.823 54.4433 143.883 54.3596C143.942 54.2759 145.526 54.2879 146.465 54.9993Z" fill="white"/>
<path d="M147.063 55.1487C147.344 55.0231 147.696 55.1487 147.72 55.3041C147.744 55.4595 147.403 55.6867 147.236 55.6329C147.063 55.5791 146.907 55.2204 147.063 55.1487Z" fill="white"/>
<g style="mix-blend-mode:multiply" opacity="0.6">
<path d="M155.795 57.4862C155.795 57.4862 152.316 53.5526 148.228 53.1162C144.14 52.6798 142.406 55.1607 142.406 55.1607C142.406 55.1607 142.699 52.1298 147.995 52.0641C153.291 51.9983 155.789 57.4862 155.789 57.4862H155.795Z" fill="#CC78B1"/>
</g>
<path d="M155.795 57.4862C155.795 57.4862 152.878 52.1477 147.403 52.2135C142.514 52.2733 141.892 56.6911 141.892 56.6911C141.892 56.6911 141.05 52.9428 144.307 51.7651C147.409 50.6413 153.021 51.8907 155.795 57.4862Z" fill="#401432"/>
<path d="M172.447 62.8126C172.447 62.8126 172.381 63.2131 170.94 63.4881C169.5 63.7691 168.346 65.2457 165.89 65.6343C163.433 66.0169 162.005 64.9468 160.547 65.1142C159.088 65.2875 158.783 64.9468 158.783 64.9468C158.419 64.0321 158.413 63.0936 158.556 62.2626C158.556 62.2626 158.556 62.2387 158.556 62.2327C158.819 60.7741 159.524 59.6681 159.524 59.6681C162.71 57.4622 166.41 56.8823 170.122 58.0122C170.122 58.0122 170.773 58.5502 171.383 59.435V59.447C171.974 60.3018 172.53 61.4795 172.435 62.8126H172.447Z" fill="url(#paint26_linear_1_397)"/>
<path d="M169.297 64.2235C169.297 64.2235 170.259 63.0936 171.706 63.2909L169.297 64.2235Z" fill="#812852"/>
<path d="M159.793 65.1625C159.793 65.1625 161.132 64.5213 162.716 65.4201L159.793 65.1625Z" fill="#812852"/>
<g style="mix-blend-mode:multiply" opacity="0.6">
<path d="M172.447 62.8126C172.447 62.8126 172.381 63.2132 170.94 63.4882C169.5 63.7691 168.346 65.2457 165.89 65.6343C163.433 66.0169 162.005 64.9468 160.547 65.1142C159.088 65.2876 158.783 64.9468 158.783 64.9468C158.419 64.0322 158.413 63.0936 158.556 62.2626C158.538 62.5018 158.467 64.0441 159.1 64.3191C159.787 64.612 163.314 63.8289 165.549 63.4762C167.785 63.1235 171.586 62.5376 171.921 61.88C172.243 61.2464 171.46 59.5964 171.383 59.447C171.974 60.3018 172.53 61.4795 172.435 62.8126H172.447Z" fill="#CC78B1"/>
</g>
<path style="mix-blend-mode:multiply" opacity="0.6" d="M170.122 58.0062C170.122 58.0062 169.709 60.5947 170.074 62.3104C170.074 62.3104 169.219 60.7203 169.578 57.8568L170.122 58.0062Z" fill="url(#paint27_linear_1_397)"/>
<path style="mix-blend-mode:multiply" opacity="0.6" d="M159.65 59.6502C159.65 59.6502 160.833 61.9936 161.007 63.7333C161.007 63.7333 161.336 61.9518 160.122 59.3394L159.65 59.6502Z" fill="url(#paint28_linear_1_397)"/>
<g style="mix-blend-mode:multiply" opacity="0.6">
<path d="M159.1 64.3191C159.1 64.3191 158.819 64.7495 158.777 64.9528C158.735 65.156 162.465 67.7147 166.117 67.1408C169.769 66.5669 172.429 63.1952 172.441 62.8126C172.447 62.43 171.777 62.0474 171.777 62.0474C171.777 62.0474 168.992 62.9382 165.549 63.4762C162.101 64.0142 159.1 64.3191 159.1 64.3191Z" fill="#CC78B1"/>
</g>
<path d="M168.334 62.179C167.773 61.9637 168.55 60.9654 168.801 60.9654C169.052 60.9654 169.273 61.4915 169.195 61.8681C169.117 62.2447 168.574 62.2686 168.334 62.179Z" fill="#FBCBBB"/>
<g style="mix-blend-mode:multiply">
<path d="M169.697 47.2636C169.697 47.2636 170.665 43.4915 172.554 40.8312L172.136 42.5469C172.136 42.5469 172.692 41.7877 173.6 41.0883C174.515 40.3888 181.908 38.428 183.462 38.4639L183.115 37.8362C183.115 37.8362 186.092 39.6595 188.566 44.0056C188.566 44.0056 186.295 42.1344 184.992 42.1225C183.689 42.1105 172.393 45.6555 169.823 48.0946L169.691 47.2696L169.697 47.2636Z" fill="#010101"/>
<path d="M155.723 49.4516C155.723 49.4516 153.649 46.1577 151.037 44.1969L151.958 45.7034C151.958 45.7034 151.198 45.1474 150.117 44.7588C149.035 44.3703 141.39 44.7588 139.926 45.273L140.063 44.5735C140.063 44.5735 137.786 47.2218 136.758 52.1179C136.758 52.1179 138.348 49.6429 139.585 49.2305C140.822 48.818 152.657 48.7462 155.854 50.2826L155.723 49.4576V49.4516Z" fill="#010101"/>
</g>
<path style="mix-blend-mode:multiply" opacity="0.6" d="M158.825 53.5885C158.825 53.5885 161.162 64.8333 158.855 68.2408C156.548 71.6543 145.317 72.557 139.346 69.8369C133.375 67.1169 136.017 52.088 136.017 52.088C136.017 52.088 138.641 47.3713 147.104 46.8272C155.568 46.2832 158.825 53.5825 158.825 53.5825V53.5885Z" fill="url(#paint29_linear_1_397)"/>
<path style="mix-blend-mode:multiply" opacity="0.6" d="M167.994 52.2613C167.994 52.2613 169.273 62.3404 172.225 64.6659C175.184 66.9854 185.195 64.642 189.63 60.6127C194.065 56.5835 187.574 44.2567 187.574 44.2567C187.574 44.2567 183.976 40.891 176.469 42.7801C168.962 44.6691 167.988 52.2673 167.988 52.2673L167.994 52.2613Z" fill="url(#paint30_linear_1_397)"/>
<path d="M157.815 55.6628C158.036 55.3998 159.602 53.6183 162.913 52.889C166.529 52.0939 169.153 53.2238 169.44 53.3493" stroke="url(#paint31_linear_1_397)" stroke-miterlimit="10"/>
<path d="M135.593 58.4546L130.196 54.8976" stroke="url(#paint32_linear_1_397)" stroke-miterlimit="10"/>
<g style="mix-blend-mode:multiply" opacity="0.4">
<path d="M160.899 76.0242C162.71 77.2139 164.712 78.6187 167.049 78.4394C169.386 78.26 171.544 75.7014 172.931 73.9319C169.817 77.5307 165.065 78.2481 160.899 76.0302V76.0242Z" fill="#CC78B1"/>
</g>
<path d="M155.807 70.8712C158.186 74.7091 162.435 78.0867 167.157 77.3335C172.04 76.5504 174.975 72.27 175.955 67.7327C172.71 69.1435 169.644 70.919 166.577 72.6766C163.027 71.9293 159.411 71.2 155.801 70.8712H155.807Z" fill="#F26665"/>
<path d="M176.547 66.9196C176.188 67.888 175.662 68.7967 175.017 69.6157C172.997 72.1803 169.781 73.9438 166.751 74.428C164.163 74.8405 161.288 74.5177 158.849 73.3938C157.319 72.6884 155.962 71.6662 154.946 70.3091C157.988 71.0325 162.071 70.9368 165.262 70.4885C165.537 70.4466 165.812 70.4048 166.075 70.3629C167.014 70.2254 168.006 70.0341 169.016 69.789C171.652 69.1554 174.401 68.169 176.553 66.9255L176.547 66.9196Z" fill="#731C55"/>
<g style="mix-blend-mode:multiply" opacity="0.4">
<path d="M154.946 70.3032C157.988 71.0265 162.071 70.9309 165.262 70.4825C161.545 71.3015 158.311 72.4194 158.849 73.3879C157.319 72.6824 155.962 71.6602 154.946 70.3032Z" fill="#CC78B1"/>
</g>
<g style="mix-blend-mode:multiply" opacity="0.6">
<path d="M176.547 66.9196C176.188 67.888 175.662 68.7967 175.017 69.6157C174.873 69.1434 172.172 69.2988 169.016 69.7831C171.652 69.1494 174.401 68.163 176.553 66.9196H176.547Z" fill="#CC78B1"/>
</g>
<path d="M161.353 74.2786C162.644 73.5732 164.945 72.9754 166.464 73.0352C168.245 72.4075 171.598 72.6585 171.598 72.6585C169.99 73.5732 168.352 74.2726 166.47 74.5058C164.862 74.7031 162.997 74.5297 161.359 74.2786H161.353Z" fill="#BE2741"/>
<path d="M155.687 70.4407C159.028 71.0445 162.692 70.9847 166.069 70.351C169.452 69.9206 172.865 68.8864 175.913 67.2603C172.243 67.5951 164.934 68.3842 155.687 70.4407Z" fill="#D74058"/>
<path d="M157.672 70.7336C160.206 72.1086 163.284 72.7004 166.147 72.2461C169.01 71.7917 171.783 70.3271 173.827 68.2766C171.359 69.3646 168.741 69.9325 166.051 70.357C163.362 70.7814 160.421 70.9966 157.672 70.7336Z" fill="#FBDBE9"/>
<path d="M175.351 66.4055C176.23 66.8359 177.031 67.35 177.575 68.1571C177.402 67.4995 177.073 66.4832 176.547 66.1125C176.015 65.7419 175.71 66.1245 175.351 66.4055Z" fill="#D86B7C"/>
<path d="M156.094 69.4124C155.388 70.088 154.785 70.8233 154.51 71.7558C154.474 71.0803 154.474 70.0222 154.863 69.5081C155.251 68.994 155.663 69.257 156.094 69.4124Z" fill="#D86B7C"/>
<g style="mix-blend-mode:soft-light">
<path d="M170.056 73.9438C170.534 74.183 170.887 74.5596 171.191 74.996C171.347 74.8824 171.508 74.7748 171.664 74.6612C171.61 74.1949 171.078 73.8422 170.749 73.5911C170.516 73.7107 170.289 73.8303 170.056 73.9438Z" fill="#FBDBE9"/>
</g>
<g style="mix-blend-mode:soft-light">
<path d="M171.03 73.5493C171.466 73.7227 171.712 74.0634 171.873 74.4939C171.915 74.4341 171.957 74.3683 171.998 74.3085C171.819 73.896 171.538 73.633 171.096 73.5433C171.072 73.5433 171.054 73.5493 171.03 73.5553V73.5493Z" fill="#FBDBE9"/>
</g>
<path d="M161.347 74.2726C164.754 74.7628 168.442 73.884 171.586 72.6525C168.765 74.7748 164.653 74.9421 161.347 74.2726Z" fill="#FBDBE9"/>
<g style="mix-blend-mode:soft-light" opacity="0.5">
<path d="M164.695 73.7286C166.093 74.0215 169.273 72.539 166.464 73.0411C165.28 73.2504 162.848 73.346 164.695 73.7286Z" fill="#F7A9B0"/>
</g>
<g style="mix-blend-mode:multiply">
<path d="M126.461 21.1947C126.461 21.1947 124.884 5.61918 114.396 6.66712C103.909 7.71506 104.371 27.6422 104.371 27.6422L106.05 26.1246C106.05 26.1246 103.977 15.4149 109.634 13.341C115.292 11.2733 120.515 14.3446 120.515 14.3446C120.515 14.3446 105.061 10.3234 100.798 19.6103C96.5277 28.8981 102.988 45.01 113.083 41.8271C123.177 38.6379 126.467 21.1938 126.467 21.1938L126.461 21.1947Z" fill="#550505"/>
</g>
<path style="mix-blend-mode:multiply" d="M99.7197 29.5347C99.7197 29.5347 110.385 14.5545 124.114 22.4301L125.103 21.8859C125.103 21.8859 111.988 12.8306 99.4688 25.7795L99.7207 29.5409L99.7197 29.5347Z" fill="url(#paint33_linear_1_397)"/>
<path d="M100.407 20.5367C100.407 20.5367 113.513 10.5276 125.182 18.3614L123.906 16.3245C123.906 16.3245 118.165 10.4321 100.791 19.6108L100.407 20.5367Z" fill="#DB3F3F"/>
<path style="mix-blend-mode:multiply" d="M106.072 40.8617C106.072 40.8617 103.601 23.3509 122.513 23.4033L121.907 23.8499C121.907 23.8499 104.304 24.873 107.588 41.6549L106.079 40.8607L106.072 40.8617Z" fill="url(#paint34_linear_1_397)"/>
<path d="M127.862 20.1252C127.862 20.1252 118.954 25.3077 116.746 39.7727C116.746 39.7727 110.102 25.9746 127.862 20.1252Z" fill="#F78E1E"/>
<defs>
<linearGradient id="paint0_linear_1_397" x1="161.963" y1="87.5761" x2="156.257" y2="51.1052" gradientUnits="userSpaceOnUse">
<stop stop-color="#31111B"/>
<stop offset="1" stop-color="#1A0F21"/>
</linearGradient>
<linearGradient id="paint1_linear_1_397" x1="195.075" y1="67.4843" x2="191.943" y2="47.4681" gradientUnits="userSpaceOnUse">
<stop stop-color="#F7A393"/>
<stop offset="0.43" stop-color="#F5A794"/>
<stop offset="0.51" stop-color="#F5A18E"/>
<stop offset="0.76" stop-color="#F59584"/>
<stop offset="1" stop-color="#F69181"/>
</linearGradient>
<linearGradient id="paint2_linear_1_397" x1="194.265" y1="62.2742" x2="192.109" y2="48.495" gradientUnits="userSpaceOnUse">
<stop stop-color="#F7A393"/>
<stop offset="0.43" stop-color="#F5A794"/>
<stop offset="0.51" stop-color="#F5A18E"/>
<stop offset="0.76" stop-color="#F59584"/>
<stop offset="1" stop-color="#F69181"/>
</linearGradient>
<linearGradient id="paint3_linear_1_397" x1="191.777" y1="57.4779" x2="190.841" y2="51.4949" gradientUnits="userSpaceOnUse">
<stop stop-color="#F7A393"/>
<stop offset="0.43" stop-color="#F5A794"/>
<stop offset="0.51" stop-color="#F5A18E"/>
<stop offset="0.76" stop-color="#F59584"/>
<stop offset="1" stop-color="#F69181"/>
</linearGradient>
<linearGradient id="paint4_linear_1_397" x1="187.218" y1="58.7019" x2="193.761" y2="57.6787" gradientUnits="userSpaceOnUse">
<stop stop-color="#F7A393"/>
<stop offset="0.43" stop-color="#F5A794"/>
<stop offset="0.51" stop-color="#F5A18E"/>
<stop offset="0.76" stop-color="#F59584"/>
<stop offset="1" stop-color="#F69181"/>
</linearGradient>
<linearGradient id="paint5_linear_1_397" x1="44.2562" y1="308.85" x2="135.037" y2="294.653" gradientUnits="userSpaceOnUse">
<stop stop-color="#F7A393"/>
<stop offset="0.43" stop-color="#F5A794"/>
<stop offset="0.51" stop-color="#F5A18E"/>
<stop offset="0.76" stop-color="#F59584"/>
<stop offset="1" stop-color="#F69181"/>
</linearGradient>
<linearGradient id="paint6_linear_1_397" x1="195.168" y1="96.6552" x2="262.079" y2="86.1911" gradientUnits="userSpaceOnUse">
<stop stop-color="#F7A393"/>
<stop offset="0.43" stop-color="#F5A794"/>
<stop offset="0.51" stop-color="#F5A18E"/>
<stop offset="0.76" stop-color="#F59584"/>
<stop offset="1" stop-color="#F69181"/>
</linearGradient>
<linearGradient id="paint7_linear_1_397" x1="235.644" y1="66.5129" x2="260.789" y2="62.5807" gradientUnits="userSpaceOnUse">
<stop stop-color="#F7A393"/>
<stop offset="0.43" stop-color="#F5A794"/>
<stop offset="0.51" stop-color="#F5A18E"/>
<stop offset="0.76" stop-color="#F59584"/>
<stop offset="1" stop-color="#F69181"/>
</linearGradient>
<linearGradient id="paint8_linear_1_397" x1="212.41" y1="376.411" x2="250.85" y2="383.443" gradientUnits="userSpaceOnUse">
<stop stop-color="#F7A393"/>
<stop offset="0.43" stop-color="#F5A794"/>
<stop offset="0.51" stop-color="#F5A18E"/>
<stop offset="0.76" stop-color="#F59584"/>
<stop offset="1" stop-color="#F69181"/>
</linearGradient>
<linearGradient id="paint9_linear_1_397" x1="137.628" y1="99.9694" x2="192.451" y2="91.3957" gradientUnits="userSpaceOnUse">
<stop stop-color="#F9AD99"/>
<stop offset="0.18" stop-color="#F79B8D"/>
<stop offset="0.46" stop-color="#F48781"/>
<stop offset="0.73" stop-color="#F37B79"/>
<stop offset="1" stop-color="#F37777"/>
</linearGradient>
<linearGradient id="paint10_linear_1_397" x1="127.154" y1="56.1666" x2="187.215" y2="46.7738" gradientUnits="userSpaceOnUse">
<stop stop-color="#F7A393"/>
<stop offset="0.43" stop-color="#F5A794"/>
<stop offset="0.51" stop-color="#F5A18E"/>
<stop offset="0.76" stop-color="#F59584"/>
<stop offset="1" stop-color="#F69181"/>
</linearGradient>
<linearGradient id="paint11_linear_1_397" x1="19.0083" y1="188.099" x2="142.846" y2="168.733" gradientUnits="userSpaceOnUse">
<stop stop-color="#F7A393"/>
<stop offset="0.43" stop-color="#F5A794"/>
<stop offset="0.51" stop-color="#F5A18E"/>
<stop offset="0.76" stop-color="#F59584"/>
<stop offset="1" stop-color="#F69181"/>
</linearGradient>
<linearGradient id="paint12_linear_1_397" x1="131.296" y1="82.674" x2="127.273" y2="56.9583" gradientUnits="userSpaceOnUse">
<stop stop-color="#F7A393"/>
<stop offset="0.43" stop-color="#F5A794"/>
<stop offset="0.51" stop-color="#F5A18E"/>
<stop offset="0.76" stop-color="#F59584"/>
<stop offset="1" stop-color="#F69181"/>
</linearGradient>
<linearGradient id="paint13_linear_1_397" x1="130.244" y1="75.9831" x2="127.474" y2="58.2821" gradientUnits="userSpaceOnUse">
<stop stop-color="#F7A393"/>
<stop offset="0.43" stop-color="#F5A794"/>
<stop offset="0.51" stop-color="#F5A18E"/>
<stop offset="0.76" stop-color="#F59584"/>
<stop offset="1" stop-color="#F69181"/>
</linearGradient>
<linearGradient id="paint14_linear_1_397" x1="132.061" y1="69.0369" x2="130.858" y2="61.3469" gradientUnits="userSpaceOnUse">
<stop stop-color="#F7A393"/>
<stop offset="0.43" stop-color="#F5A794"/>
<stop offset="0.51" stop-color="#F5A18E"/>
<stop offset="0.76" stop-color="#F59584"/>
<stop offset="1" stop-color="#F69181"/>
</linearGradient>
<linearGradient id="paint15_linear_1_397" x1="124.353" y1="70.7515" x2="135.248" y2="69.0477" gradientUnits="userSpaceOnUse">
<stop stop-color="#F7A393"/>
<stop offset="0.43" stop-color="#F5A794"/>
<stop offset="0.51" stop-color="#F5A18E"/>
<stop offset="0.76" stop-color="#F59584"/>
<stop offset="1" stop-color="#F69181"/>
</linearGradient>
<linearGradient id="paint16_linear_1_397" x1="178.529" y1="55.03" x2="177.401" y2="46.9241" gradientUnits="userSpaceOnUse">
<stop stop-color="#E8DCED"/>
<stop offset="1" stop-color="#BBC3E3"/>
</linearGradient>
<linearGradient id="paint17_linear_1_397" x1="178.281" y1="54.6592" x2="176.633" y2="47.4074" gradientUnits="userSpaceOnUse">
<stop stop-color="#48204B"/>
<stop offset="1" stop-color="#301138"/>
</linearGradient>
<linearGradient id="paint18_linear_1_397" x1="178.233" y1="54.4494" x2="176.682" y2="47.6231" gradientUnits="userSpaceOnUse">
<stop stop-color="#57345B"/>
<stop offset="1" stop-color="#301138"/>
</linearGradient>
<linearGradient id="paint19_linear_1_397" x1="177.961" y1="53.249" x2="176.954" y2="48.8186" gradientUnits="userSpaceOnUse">
<stop stop-color="#A295B8"/>
<stop offset="0.99" stop-color="#734B61"/>
</linearGradient>
<linearGradient id="paint20_linear_1_397" x1="170.735" y1="50.1767" x2="183.908" y2="47.1845" gradientUnits="userSpaceOnUse">
<stop stop-color="#F7A393"/>
<stop offset="0.43" stop-color="#F5A794"/>
<stop offset="0.51" stop-color="#F5A18E"/>
<stop offset="0.76" stop-color="#F59584"/>
<stop offset="1" stop-color="#F69181"/>
</linearGradient>
<linearGradient id="paint21_linear_1_397" x1="149.292" y1="59.6199" x2="147.889" y2="51.5571" gradientUnits="userSpaceOnUse">
<stop stop-color="#E8DCED"/>
<stop offset="1" stop-color="#BBC3E3"/>
</linearGradient>
<linearGradient id="paint22_linear_1_397" x1="149.428" y1="59.2045" x2="148.781" y2="51.796" gradientUnits="userSpaceOnUse">
<stop stop-color="#48204B"/>
<stop offset="1" stop-color="#301138"/>
</linearGradient>
<linearGradient id="paint23_linear_1_397" x1="149.38" y1="58.9668" x2="148.773" y2="51.9928" gradientUnits="userSpaceOnUse">
<stop stop-color="#57345B"/>
<stop offset="1" stop-color="#301138"/>
</linearGradient>
<linearGradient id="paint24_linear_1_397" x1="149.292" y1="57.7507" x2="148.897" y2="53.2246" gradientUnits="userSpaceOnUse">
<stop stop-color="#A295B8"/>
<stop offset="0.99" stop-color="#734B61"/>
</linearGradient>
<linearGradient id="paint25_linear_1_397" x1="155.234" y1="52.6173" x2="141.771" y2="53.7926" gradientUnits="userSpaceOnUse">
<stop stop-color="#F7A393"/>
<stop offset="0.43" stop-color="#F5A794"/>
<stop offset="0.51" stop-color="#F5A18E"/>
<stop offset="0.76" stop-color="#F59584"/>
<stop offset="1" stop-color="#F69181"/>
</linearGradient>
<linearGradient id="paint26_linear_1_397" x1="165.884" y1="65.6458" x2="164.625" y2="57.6015" gradientUnits="userSpaceOnUse">
<stop stop-color="#F37A7F"/>
<stop offset="0.47" stop-color="#F4837F"/>
<stop offset="1" stop-color="#F58880"/>
</linearGradient>
<linearGradient id="paint27_linear_1_397" x1="170.32" y1="62.2895" x2="169.626" y2="57.8598" gradientUnits="userSpaceOnUse">
<stop stop-color="#FCE4D6"/>
<stop offset="0.99" stop-color="#AE7DB7"/>
</linearGradient>
<linearGradient id="paint28_linear_1_397" x1="160.76" y1="63.79" x2="160.067" y2="59.3604" gradientUnits="userSpaceOnUse">
<stop stop-color="#FCE4D6"/>
<stop offset="0.99" stop-color="#AE7DB7"/>
</linearGradient>
<linearGradient id="paint29_linear_1_397" x1="149.341" y1="71.6079" x2="145.492" y2="47.0085" gradientUnits="userSpaceOnUse">
<stop stop-color="#FCE4D6"/>
<stop offset="0.99" stop-color="#AE7DB7"/>
</linearGradient>
<linearGradient id="paint30_linear_1_397" x1="181.357" y1="65.1539" x2="177.843" y2="42.6925" gradientUnits="userSpaceOnUse">
<stop stop-color="#FCE4D6"/>
<stop offset="0.99" stop-color="#AE7DB7"/>
</linearGradient>
<linearGradient id="paint31_linear_1_397" x1="163.679" y1="54.9904" x2="163.292" y2="52.5157" gradientUnits="userSpaceOnUse">
<stop stop-color="#FCE4D6"/>
<stop offset="0.99" stop-color="#AE7DB7"/>
</linearGradient>
<linearGradient id="paint32_linear_1_397" x1="133.256" y1="59.0542" x2="132.516" y2="54.3233" gradientUnits="userSpaceOnUse">
<stop stop-color="#FCE4D6"/>
<stop offset="0.99" stop-color="#AE7DB7"/>
</linearGradient>
<linearGradient id="paint33_linear_1_397" x1="99.068" y1="25.3021" x2="125.007" y2="21.3078" gradientUnits="userSpaceOnUse">
<stop stop-color="#827FBC"/>
<stop offset="1" stop-color="white"/>
</linearGradient>
<linearGradient id="paint34_linear_1_397" x1="105.003" y1="33.9135" x2="123.688" y2="31.0364" gradientUnits="userSpaceOnUse">
<stop stop-color="#524AE1"/>
<stop offset="1" stop-color="white"/>
</linearGradient>
</defs>
</svg>
