<svg width="390" height="295" viewBox="0 0 390 295" fill="none" xmlns="http://www.w3.org/2000/svg">
<path fill-rule="evenodd" clip-rule="evenodd" d="M-107 29.817C-70.2654 29.817 -39.486 36.3684 -19.8348 44.8805C-12.9713 47.8535 -8.59397 50.5769 -6.05003 52.4837C-3.68353 74.9638 7.69115 93.0235 20.2794 105.915C34.2044 120.176 51.8107 130.638 69.4976 138.299C105.041 153.695 150.511 161.931 198 161.931C234.735 161.931 265.514 168.482 285.165 176.994C292.029 179.967 296.406 182.69 298.95 184.597C301.316 207.078 312.691 225.137 325.279 238.029C339.204 252.289 356.811 262.751 374.498 270.413C410.041 285.808 455.511 294.044 503 294.044V190.044C466.265 190.044 435.486 183.493 415.835 174.981C408.971 172.008 404.594 169.284 402.05 167.378C399.684 144.897 388.309 126.838 375.721 113.946C361.796 99.6854 344.189 89.2235 326.502 81.5623C290.959 66.1665 245.489 57.9306 198 57.9306C161.265 57.9306 130.486 51.3792 110.835 42.8671C103.971 39.8941 99.594 37.1707 97.05 35.2639C94.6835 12.7837 83.3089 -5.27592 70.7206 -18.1676C56.7956 -32.4282 39.1893 -42.8901 21.5024 -50.5514C-14.0406 -65.9471 -59.5112 -74.183 -107 -74.183V29.817Z" fill="#1D99B5"/>
</svg>
