<svg width="1440" height="649" viewBox="0 0 1440 649" fill="none" xmlns="http://www.w3.org/2000/svg">
<path fill-rule="evenodd" clip-rule="evenodd" d="M0 90C94.6508 90 177.982 104.981 235.745 127.397C264.794 138.671 284.75 150.814 296.554 161.644C302.298 166.914 305.258 171.094 306.689 173.807C307.998 176.29 308 177.443 308 177.71C308 216.509 328.466 247.772 353.135 270.406C377.765 293.005 410.53 310.967 446.628 324.977C519.159 353.125 615.828 369.419 720 369.419C814.651 369.419 897.982 384.4 955.745 406.817C984.794 418.09 1004.75 430.233 1016.55 441.063C1022.3 446.333 1025.26 450.514 1026.69 453.226C1028 455.709 1028 456.863 1028 457.129H1132C1132 418.33 1111.53 387.067 1086.87 364.432C1062.23 341.833 1029.47 323.871 993.372 309.862C920.841 281.714 824.172 265.419 720 265.419C625.349 265.419 542.018 250.439 484.255 228.022C455.206 216.749 435.25 204.606 423.446 193.775C417.702 188.505 414.742 184.325 413.311 181.612C412.002 179.129 412 177.976 412 177.71C412 138.911 391.534 107.647 366.865 85.0128C342.235 62.4139 309.47 44.4519 273.372 30.4426C200.841 2.29451 104.172 -14 0 -14V90ZM1440 544.839C1345.35 544.839 1262.02 529.858 1204.25 507.441C1175.21 496.168 1155.25 484.025 1143.45 473.195C1137.7 467.925 1134.74 463.744 1133.31 461.032C1132 458.549 1132 457.395 1132 457.129H1028C1028 495.928 1048.47 527.191 1073.13 549.826C1097.77 572.425 1130.53 590.387 1166.63 604.396C1239.16 632.544 1335.83 648.839 1440 648.839V544.839Z" fill="#1D99B5"/>
</svg>
